<svg height="480pt" viewBox="-48 0 480 480" width="480pt" xmlns="http://www.w3.org/2000/svg"><path d="m8 8h368v464h-368zm0 0" fill="#9bc9ff"/><g fill="#1e81ce"><path d="m376 480h-368c-4.417969 0-8-3.582031-8-8v-464c0-4.417969 3.582031-8 8-8h368c4.417969 0 8 3.582031 8 8v464c0 4.417969-3.582031 8-8 8zm-360-16h352v-448h-352zm0 0"/><path d="m312 112h-128c-4.417969 0-8-3.582031-8-8s3.582031-8 8-8h128c4.417969 0 8 3.582031 8 8s-3.582031 8-8 8zm0 0"/><path d="m96 128c-2.121094 0-4.15625-.84375-5.65625-2.34375l-22.625-22.625c-3.03125-3.136719-2.988281-8.128906.097656-11.214844 3.085938-3.085937 8.078125-3.128906 11.214844-.097656l16.96875 16.96875 39.601562-39.597656c3.136719-3.035156 8.128907-2.992188 11.214844.09375 3.085938 3.085937 3.128906 8.078125.09375 11.214844l-45.253906 45.257812c-1.5 1.5-3.535156 2.34375-5.65625 2.34375zm0 0"/><path d="m312 184h-128c-4.417969 0-8-3.582031-8-8s3.582031-8 8-8h128c4.417969 0 8 3.582031 8 8s-3.582031 8-8 8zm0 0"/><path d="m96 208c-2.121094 0-4.15625-.84375-5.65625-2.34375l-22.625-22.625c-3.03125-3.136719-2.988281-8.128906.097656-11.214844 3.085938-3.085937 8.078125-3.128906 11.214844-.097656l16.96875 16.96875 39.601562-39.597656c3.136719-3.035156 8.128907-2.992188 11.214844.09375 3.085938 3.085937 3.128906 8.078125.09375 11.214844l-45.253906 45.257812c-1.5 1.5-3.535156 2.34375-5.65625 2.34375zm0 0"/><path d="m312 264h-128c-4.417969 0-8-3.582031-8-8s3.582031-8 8-8h128c4.417969 0 8 3.582031 8 8s-3.582031 8-8 8zm0 0"/><path d="m96 288c-2.121094 0-4.15625-.84375-5.65625-2.34375l-22.625-22.625c-2.078125-2.007812-2.914062-4.980469-2.179688-7.78125.730469-2.796875 2.914063-4.980469 5.710938-5.710938 2.800781-.734374 5.773438.101563 7.78125 2.179688l16.96875 16.96875 39.601562-39.597656c2.007813-2.082032 4.980469-2.914063 7.777344-2.183594s4.984375 2.917969 5.714844 5.714844-.101562 5.769531-2.183594 7.777344l-45.253906 45.257812c-1.5 1.5-3.535156 2.34375-5.65625 2.34375zm0 0"/><path d="m312 424h-96c-4.417969 0-8-3.582031-8-8s3.582031-8 8-8h96c4.417969 0 8 3.582031 8 8s-3.582031 8-8 8zm0 0"/></g></svg>