<svg height="480pt" viewBox="0 0 480 480" width="480pt" xmlns="http://www.w3.org/2000/svg"><g fill="#78b9eb"><path d="m64 280c0 8.835938-7.164062 16-16 16s-16-7.164062-16-16 7.164062-16 16-16 16 7.164062 16 16zm0 0"/><path d="m344 56c0 8.835938 7.164062 16 16 16h48l-64-64zm0 0"/><path d="m288 328c0 13.253906 10.746094 24 24 24s24-10.746094 24-24v-24h-48zm0 0"/><path d="m312 120c-44.183594 0-80 35.816406-80 80s35.816406 80 80 80 80-35.816406 80-80-35.816406-80-80-80zm-29.296875 92.800781c-5.660156-12.972656-2.128906-28.125 8.6875-37.253906s26.34375-10.070313 38.183594-2.3125c11.835937 7.761719 17.171875 22.375 13.117187 35.933594-4.054687 13.5625-16.539062 22.847656-30.691406 22.832031-12.726562.03125-24.246094-7.519531-29.296875-19.199219zm0 0"/><path d="m144 168c0 8.835938-7.164062 16-16 16s-16-7.164062-16-16 7.164062-16 16-16 16 7.164062 16 16zm0 0"/><path d="m400 288c-7.632812 0-14.203125 5.390625-15.695312 12.875-1.492188 7.488281 2.515624 14.984375 9.566406 17.90625 7.050781 2.921875 15.1875.457031 19.425781-5.890625 4.242187-6.34375 3.410156-14.804687-1.984375-20.203125-2.996094-3.003906-7.066406-4.691406-11.3125-4.6875zm0 0"/><path d="m184 240c-7.105469-.019531-13.375 4.628906-15.417969 11.433594-2.042969 6.804687.632813 14.140625 6.574219 18.035156s13.734375 3.417969 19.160156-1.167969c5.421875-4.585937 7.1875-12.195312 4.332032-18.699219-2.542969-5.828124-8.292969-9.59375-14.648438-9.601562zm0 0"/></g><path d="m400 456c0 4.417969-3.582031 8-8 8h-304c-4.417969 0-8-3.582031-8-8v-144h-16v144c0 13.253906 10.746094 24 24 24h304c13.253906 0 24-10.746094 24-24v-112h-16zm0 0" fill="#1a6fb0"/><path d="m416 264v-192h-.070312c.015624-2.109375-.800782-4.144531-2.273438-5.65625l-64-64c-1.507812-1.480469-3.542969-2.296875-5.65625-2.2734375v-.0703125h-256c-13.253906 0-24 10.746094-24 24v192h16v-192c0-4.417969 3.582031-8 8-8h248v40c0 13.253906 10.746094 24 24 24h40v184zm-56-200c-4.417969 0-8-3.582031-8-8v-28.6875l36.6875 36.6875zm0 0" fill="#1a6fb0"/><path d="m464 232c-2.121094 0-4.15625.84375-5.65625 2.34375l-48.0625 48.054688c-5.859375-2.914063-12.675781-3.207032-18.761719-.796876l-16.863281-19.9375c30.417969-30.828124 33.882812-79.207031 8.167969-114.054687-25.714844-34.847656-72.960938-45.808594-111.390625-25.835937-38.425782 19.96875-56.613282 64.929687-42.875 106.003906l-27.101563 11.863281c-5.761719-6.308594-14.496093-8.988281-22.800781-6.992187l-31.839844-49.929688c3.335938-4.179688 5.164063-9.367188 5.183594-14.71875 0-13.253906-10.746094-24-24-24s-24 10.746094-24 24c.003906 4.925781 1.535156 9.726562 4.382812 13.742188l-53.832031 75.28125c-2.125-.648438-4.328125-.992188-6.550781-1.023438-10.132812.042969-19.148438 6.445312-22.527344 16h-25.472656v16h25.472656c3.089844 8.828125 11.042969 15.050781 20.355469 15.925781s18.285156-3.753906 22.96875-11.851562c4.683594-8.097657 4.222656-18.183594-1.179687-25.816407l53.832031-75.28125c2.125.648438 4.328125.992188 6.550781 1.023438 1.800781-.015625 3.59375-.234375 5.34375-.648438l31.839844 49.929688c-3.335938 4.179688-5.164063 9.367188-5.183594 14.71875 0 13.253906 10.746094 24 24 24s24-10.746094 24-24c0-.574219-.128906-1.121094-.167969-1.6875l27.128907-11.871094c9.96875 17.984375 25.894531 31.933594 45.039062 39.445313v46.113281c0 17.671875 14.328125 32 32 32s32-14.328125 32-32v-46.113281c6.503906-2.554688 12.679688-5.871094 18.398438-9.886719l16.90625 20c-2.148438 3.636719-3.289063 7.777344-3.304688 12 0 13.253906 10.746094 24 24 24s24-10.746094 24-24c-.015625-3.5625-.835938-7.078125-2.398438-10.28125l45.710938-45.71875h12.6875v-16zm-416 56c-4.417969 0-8-3.582031-8-8s3.582031-8 8-8 8 3.582031 8 8-3.582031 8-8 8zm72-120c0-4.417969 3.582031-8 8-8s8 3.582031 8 8-3.582031 8-8 8-8-3.582031-8-8zm64 96c-4.417969 0-8-3.582031-8-8s3.582031-8 8-8 8 3.582031 8 8-3.582031 8-8 8zm56-64c-.066406-32.367188 21.472656-60.800781 52.652344-69.5 31.175781-8.695312 64.324218 4.476562 81.023437 32.203125s12.847657 63.191406-9.417969 86.679687l-20.960937-24.796874c5.59375-6.980469 8.660156-15.644532 8.703125-24.585938.050781-15.332031-8.664062-29.339844-22.441406-36.070312-13.773438-6.730469-30.183594-4.996094-42.246094 4.464843-12.0625 9.460938-17.65625 24.984375-14.402344 39.964844l-29.710937 12.992187c-2.132813-6.914062-3.214844-14.113281-3.199219-21.351562zm72 24c-13.253906 0-24-10.746094-24-24s10.746094-24 24-24 24 10.746094 24 24-10.746094 24-24 24zm0 120c-8.816406-.046875-15.953125-7.183594-16-16v-16h32v16c-.039062 8.820312-7.179688 15.960938-16 16zm16-48h-32v-9.527344c10.570312 2.035156 21.429688 2.035156 32 0zm-16-24c-25.695312-.027344-49.425781-13.75-62.273438-36l29.648438-12.976562c7.46875 10.628906 19.636719 16.960937 32.625 16.976562 6.683594-.042969 13.246094-1.789062 19.070312-5.0625l21.007813 24.839844c-11.839844 7.980468-25.796875 12.238281-40.078125 12.222656zm88 40c-4.417969 0-8-3.582031-8-8s3.582031-8 8-8 8 3.582031 8 8-3.582031 8-8 8zm0 0" fill="#1a6fb0"/></svg>